<svg width="512" height="512" viewBox="0 0 512 512" xmlns="http://www.w3.org/2000/svg" role="img" aria-label="ColorWalk logo">
  <defs>
    <linearGradient id="cw-grad" x1="0" y1="0" x2="1" y2="1">
      <stop offset="0%" stop-color="#4fd1ff"/>
      <stop offset="55%" stop-color="#ff6f3c"/>
      <stop offset="100%" stop-color="#ffd04a"/>
    </linearGradient>
  </defs>
  <rect x="36" y="36" width="440" height="440" rx="120" fill="#0b1020"/>
  <path d="M128 256c0-70.7 57.3-128 128-128 43.6 0 82.2 21.9 105.3 55.2l-44.8 30.9c-13.2-18.9-35.1-31.1-60.5-31.1-40.9 0-74 33.1-74 74s33.1 74 74 74c24.8 0 46.8-12.2 60.2-31.2l45 30.7C338.1 364.9 299.5 387 256 387c-70.7 0-128-57.3-128-128z" fill="url(#cw-grad)"/>
  <circle cx="371" cy="256" r="30" fill="url(#cw-grad)"/>
</svg>
